<svg width="75" height="81" viewBox="0 0 75 81" fill="none" xmlns="http://www.w3.org/2000/svg">
<path d="M14 12.51C11.5247 12.51 9.1507 13.5644 7.40036 15.4413C5.65002 17.3181 4.66669 19.8637 4.66669 22.518V25.02H70V22.518C70 19.8637 69.0167 17.3181 67.2663 15.4413C65.516 13.5644 63.142 12.51 60.6667 12.51H14Z" fill="currentColor"/>
<path fill-rule="evenodd" clip-rule="evenodd" d="M70 32.5259H4.66669V57.5458C4.66669 60.2001 5.65002 62.7457 7.40036 64.6226C9.1507 66.4994 11.5247 67.5538 14 67.5538H60.6667C63.142 67.5538 65.516 66.4994 67.2663 64.6226C69.0167 62.7457 70 60.2001 70 57.5458V32.5259ZM14 45.0359C14 44.3723 14.2459 43.7359 14.6834 43.2667C15.121 42.7975 15.7145 42.5339 16.3334 42.5339H35C35.6189 42.5339 36.2123 42.7975 36.6499 43.2667C37.0875 43.7359 37.3334 44.3723 37.3334 45.0359C37.3334 45.6994 37.0875 46.3358 36.6499 46.805C36.2123 47.2743 35.6189 47.5379 35 47.5379H16.3334C15.7145 47.5379 15.121 47.2743 14.6834 46.805C14.2459 46.3358 14 45.6994 14 45.0359ZM16.3334 52.5419C15.7145 52.5419 15.121 52.8055 14.6834 53.2747C14.2459 53.7439 14 54.3803 14 55.0438C14 55.7074 14.2459 56.3438 14.6834 56.813C15.121 57.2822 15.7145 57.5458 16.3334 57.5458H25.6667C26.2855 57.5458 26.879 57.2822 27.3166 56.813C27.7542 56.3438 28 55.7074 28 55.0438C28 54.3803 27.7542 53.7439 27.3166 53.2747C26.879 52.8055 26.2855 52.5419 25.6667 52.5419H16.3334Z" fill="currentColor"/>
</svg>
