<svg width="70" height="70" viewBox="0 0 70 70" fill="none" xmlns="http://www.w3.org/2000/svg">
<path fill-rule="evenodd" clip-rule="evenodd" d="M35 6.5625C19.2937 6.5625 6.5625 19.2937 6.5625 35C6.5625 50.7063 19.2937 63.4375 35 63.4375C50.7063 63.4375 63.4375 50.7063 63.4375 35C63.4375 19.2937 50.7063 6.5625 35 6.5625ZM37.1875 17.5C37.1875 16.9198 36.957 16.3634 36.5468 15.9532C36.1366 15.543 35.5802 15.3125 35 15.3125C34.4198 15.3125 33.8634 15.543 33.4532 15.9532C33.043 16.3634 32.8125 16.9198 32.8125 17.5V35C32.8125 36.2075 33.7925 37.1875 35 37.1875H48.125C48.7052 37.1875 49.2616 36.957 49.6718 36.5468C50.082 36.1366 50.3125 35.5802 50.3125 35C50.3125 34.4198 50.082 33.8634 49.6718 33.4532C49.2616 33.043 48.7052 32.8125 48.125 32.8125H37.1875V17.5Z" fill="currentColor"/>
</svg>
