<svg width="76" height="60" viewBox="0 0 76 60" fill="none" xmlns="http://www.w3.org/2000/svg">
<path d="M43.7 60C36.86 60 31.0333 58.1 26.22 54.3C21.4067 50.5 19 45.9 19 40.5V38.775C13.5533 38.075 9.025 36.062 5.415 32.736C1.805 29.41 0 25.498 0 21V6.00001C0 5.15001 0.3648 4.43801 1.0944 3.86401C1.824 3.29001 2.72587 3.00201 3.8 3.00001H11.4C11.4 2.15001 11.7648 1.43801 12.4944 0.864011C13.224 0.290011 14.1259 0.00201034 15.2 1.03448e-05C16.2741 -0.00198965 17.1773 0.286011 17.9094 0.864011C18.6415 1.44201 19.0051 2.15401 19 3.00001V9.00001C19 9.85001 18.6352 10.563 17.9056 11.139C17.176 11.715 16.2741 12.002 15.2 12C14.1259 11.998 13.224 11.71 12.4944 11.136C11.7648 10.562 11.4 9.85001 11.4 9.00001H7.6V21C7.6 24.3 9.08833 27.125 12.065 29.475C15.0417 31.825 18.62 33 22.8 33C26.98 33 30.5583 31.825 33.535 29.475C36.5117 27.125 38 24.3 38 21V9.00001H34.2C34.2 9.85001 33.8352 10.563 33.1056 11.139C32.376 11.715 31.4741 12.002 30.4 12C29.3259 11.998 28.424 11.71 27.6944 11.136C26.9648 10.562 26.6 9.85001 26.6 9.00001V3.00001C26.6 2.15001 26.9648 1.43801 27.6944 0.864011C28.424 0.290011 29.3259 0.00201034 30.4 1.03448e-05C31.4741 -0.00198965 32.3773 0.286011 33.1094 0.864011C33.8415 1.44201 34.2051 2.15401 34.2 3.00001H41.8C42.8767 3.00001 43.7798 3.28801 44.5094 3.86401C45.239 4.44001 45.6025 5.15201 45.6 6.00001V21C45.6 25.5 43.795 29.413 40.185 32.739C36.575 36.065 32.0467 38.077 26.6 38.775V40.5C26.6 44.25 28.2631 47.438 31.5894 50.064C34.9157 52.69 38.9525 54.002 43.7 54C48.4475 53.998 52.4856 52.686 55.8144 50.064C59.1432 47.442 60.8051 44.254 60.8 40.5V35.475C58.5833 34.825 56.7631 33.737 55.3394 32.211C53.9157 30.685 53.2025 28.948 53.2 27C53.2 24.5 54.3083 22.375 56.525 20.625C58.7417 18.875 61.4333 18 64.6 18C67.7667 18 70.4583 18.875 72.675 20.625C74.8917 22.375 76 24.5 76 27C76 28.95 75.2881 30.688 73.8644 32.214C72.4407 33.74 70.6192 34.827 68.4 35.475V40.5C68.4 45.9 65.9933 50.5 61.18 54.3C56.3667 58.1 50.54 60 43.7 60Z" fill="currentColor"/>
</svg>
