<svg width="70" height="61" viewBox="0 0 70 61" fill="none" xmlns="http://www.w3.org/2000/svg">
<path d="M60 60.0479C62.6522 60.0479 65.1957 58.9935 67.0711 57.1167C68.9464 55.2398 70 52.6942 70 50.0399V35.028C70 32.3737 68.9464 29.8281 67.0711 27.9512C65.1957 26.0744 62.6522 25.02 60 25.02H10C7.34784 25.02 4.8043 26.0744 2.92893 27.9512C1.05357 29.8281 0 32.3737 0 35.028V50.0399C0 52.6942 1.05357 55.2398 2.92893 57.1167C4.8043 58.9935 7.34784 60.0479 10 60.0479H60ZM0 23.839V10.008C0 7.3537 1.05357 4.80813 2.92893 2.93127C4.8043 1.05441 7.34784 0 10 0H27.93C29.918 0.00086721 31.8243 0.791596 33.23 2.19842L40.3033 9.27407C40.77 9.74444 41.4067 10.008 42.07 10.008H60C62.6522 10.008 65.1957 11.0624 67.0711 12.9393C68.9464 14.8161 70 17.3617 70 20.016V23.839C67.2528 21.3725 63.6907 20.0107 60 20.016H10C6.30931 20.0107 2.74723 21.3725 0 23.839Z" fill="currentColor"/>
</svg>
