<svg width="96" height="90" viewBox="0 0 96 90" fill="none" xmlns="http://www.w3.org/2000/svg">
<path d="M64 67.5C66.2667 67.5 68.1507 66.875 69.652 65.625C71.1533 64.375 71.936 62.5 72 60C72.0667 57.875 71.3173 56.0938 69.752 54.6563C68.1867 53.2188 66.2693 52.5 64 52.5C61.7307 52.5 59.8307 53.2188 58.3 54.6563C56.7693 56.0938 56.0027 57.875 56 60C55.9973 62.125 56.764 63.9062 58.3 65.3438C59.836 66.7812 61.736 67.5 64 67.5ZM64 75C59.6 75 55.8333 73.5313 52.7 70.5938C49.5667 67.6563 48 64.125 48 60C48 55.875 49.5667 52.3438 52.7 49.4063C55.8333 46.4688 59.6 45 64 45C68.4 45 72.1667 46.4688 75.3 49.4063C78.4333 52.3438 80 55.875 80 60C80 61.4375 79.8173 62.7975 79.452 64.08C79.0867 65.3625 78.536 66.565 77.8 67.6875L85.2 74.625C85.9333 75.3125 86.3 76.1875 86.3 77.25C86.3 78.3125 85.9333 79.1875 85.2 79.875C84.4667 80.5625 83.5333 80.9063 82.4 80.9063C81.2667 80.9063 80.3333 80.5625 79.6 79.875L72.2 72.9375C71 73.625 69.7173 74.1413 68.352 74.4863C66.9867 74.8313 65.536 75.0025 64 75ZM17.4 77.625C16.0667 78.125 14.8333 77.985 13.7 77.205C12.5667 76.425 12 75.3775 12 74.0625V21.5625C12 20.75 12.2507 20.0313 12.752 19.4063C13.2533 18.7813 13.936 18.3125 14.8 18L33.4 12.0938C34.2667 11.7812 35.1333 11.625 36 11.625C36.8667 11.625 37.7333 11.7812 38.6 12.0938L60 19.125L78.6 12.375C79.9333 11.875 81.1667 12.0163 82.3 12.7988C83.4333 13.5813 84 14.6275 84 15.9375V41.25C84 42.3125 83.4667 43.0313 82.4 43.4063C81.3333 43.7813 80.3667 43.5938 79.5 42.8438C77.3 41.0938 74.884 39.765 72.252 38.8575C69.62 37.95 66.8693 37.4975 64 37.5H62.3C61.7 37.5 61.1333 37.5625 60.6 37.6875C59.4 37.8125 58.3333 37.5463 57.4 36.8888C56.4667 36.2313 56 35.3725 56 34.3125V25.6875L40 20.4375V65.5313C40 66.7188 39.6507 67.7813 38.952 68.7188C38.2533 69.6563 37.336 70.3438 36.2 70.7813L17.4 77.625Z" fill="currentColor"/>
</svg>
